<svg width="971" height="323" viewBox="0 0 971 323" fill="none" xmlns="http://www.w3.org/2000/svg">
<path d="M833.631 322.914C805.564 322.914 781.259 316.621 760.715 304.034C740.171 291.448 724.402 273.002 713.406 248.696C702.411 224.391 696.913 195.311 696.913 161.457C696.913 127.314 702.411 98.1619 713.406 74.0012C724.402 49.8405 740.171 31.4668 760.715 18.8801C781.403 6.29336 805.709 0 833.631 0C861.987 0 886.438 6.29336 906.981 18.8801C927.67 31.4668 943.512 49.9129 954.507 74.2182C965.502 98.5236 971 127.603 971 161.457C971 195.6 965.502 224.752 954.507 248.913C943.512 273.074 927.67 291.448 906.981 304.034C886.438 316.621 861.987 322.914 833.631 322.914ZM833.631 256.292C844.048 256.292 853.162 252.964 860.975 246.309C868.932 239.509 875.008 229.02 879.204 214.842C883.544 200.664 885.569 182.869 885.28 161.457C885.28 140.335 883.11 122.684 878.77 108.506C874.574 94.3281 868.57 83.8391 860.758 77.0394C853.09 70.095 844.048 66.6228 833.631 66.6228C823.504 66.6228 814.606 70.095 806.939 77.0394C799.271 83.8391 793.267 94.3281 788.927 108.506C784.731 122.684 782.633 140.335 782.633 161.457C782.633 182.869 784.731 200.664 788.927 214.842C793.267 229.02 799.271 239.509 806.939 246.309C814.606 252.964 823.504 256.292 833.631 256.292Z" fill="#CBE0E3"/>
<path d="M460.197 204.209L587.366 4.34021H645.525V90.7111H612.322L542.01 201.387V203.992H728.858V268.661H460.197V204.209ZM612.973 248.913L614.492 220.919V4.34021H691.966V318.574H612.973V248.913Z" fill="#CBE0E3"/>
<path d="M352.385 322.914C324.318 322.914 300.012 316.621 279.469 304.034C258.925 291.448 243.155 273.002 232.16 248.696C221.165 224.391 215.667 195.311 215.667 161.457C215.667 127.314 221.165 98.1619 232.16 74.0012C243.155 49.8405 258.925 31.4668 279.469 18.8801C300.157 6.29336 324.463 0 352.385 0C380.741 0 405.191 6.29336 425.735 18.8801C446.423 31.4668 462.265 49.9129 473.261 74.2182C484.256 98.5236 489.754 127.603 489.754 161.457C489.754 195.6 484.256 224.752 473.261 248.913C462.265 273.074 446.423 291.448 425.735 304.034C405.191 316.621 380.741 322.914 352.385 322.914ZM352.385 256.292C362.801 256.292 371.916 252.964 379.728 246.309C387.685 239.509 393.762 229.02 397.957 214.842C402.298 200.664 404.323 182.869 404.034 161.457C404.034 140.335 401.864 122.684 397.523 108.506C393.328 94.3281 387.324 83.8391 379.511 77.0394C371.844 70.095 362.801 66.6228 352.385 66.6228C342.258 66.6228 333.36 70.095 325.692 77.0394C318.024 83.8391 312.02 94.3281 307.68 108.506C303.485 122.684 301.387 140.335 301.387 161.457C301.387 182.869 303.485 200.664 307.68 214.842C312.02 229.02 318.024 239.509 325.692 246.309C333.36 252.964 342.258 256.292 352.385 256.292Z" fill="#CBE0E3"/>
<path d="M5.64232 259.113L122.395 161.023C131.654 153.355 138.888 146.7 144.096 141.058C149.449 135.416 153.572 129.556 156.466 123.48C159.504 117.259 161.023 110.532 161.023 103.298C161.023 95.3408 159.215 88.324 155.598 82.2477C151.981 76.1713 147.062 71.6141 140.841 68.5759C134.62 65.3931 127.459 63.8016 119.357 63.8016C111.4 63.8016 104.238 65.4654 97.8726 68.7929C91.6516 71.9758 86.8773 76.7501 83.5498 83.1158C80.3669 89.4815 78.7755 97.0769 78.7755 105.902H0C0 84.4902 4.91895 65.7548 14.7568 49.6958C24.7394 33.4922 38.7005 21.1949 56.6402 12.8037C74.5799 4.26791 95.5578 0 119.574 0C144.024 0 165.363 3.97857 183.592 11.9357C201.966 19.8928 216.144 31.1775 226.127 45.7896C236.254 60.2571 241.318 77.1117 241.318 96.3535C241.318 108.94 238.786 121.093 233.722 132.812C228.803 144.53 219.906 157.623 207.03 172.091C194.154 186.414 175.997 203.413 152.56 223.089L120.659 250.432V252.385H245.007V318.574H5.64232V259.113Z" fill="#CBE0E3"/>
</svg>
