<svg width="965" height="324" viewBox="0 0 965 324" fill="none" xmlns="http://www.w3.org/2000/svg">
<path d="M826.942 323.861C798.875 323.861 774.57 317.568 754.026 304.981C733.482 292.395 717.712 273.948 706.717 249.643C695.722 225.338 690.224 196.258 690.224 162.404C690.224 128.261 695.722 99.1088 706.717 74.9481C717.712 50.7874 733.482 32.4137 754.026 19.827C774.714 7.24026 799.02 0.946899 826.942 0.946899C855.298 0.946899 879.748 7.24026 900.292 19.827C920.981 32.4137 936.823 50.8598 947.818 75.1651C958.813 99.4705 964.311 128.55 964.311 162.404C964.311 196.547 958.813 225.699 947.818 249.86C936.823 274.021 920.981 292.395 900.292 304.981C879.748 317.568 855.298 323.861 826.942 323.861ZM826.942 257.239C837.359 257.239 846.473 253.911 854.286 247.256C862.243 240.456 868.319 229.967 872.515 215.789C876.855 201.611 878.88 183.816 878.591 162.404C878.591 141.282 876.421 123.631 872.08 109.453C867.885 95.275 861.881 84.786 854.069 77.9863C846.401 71.0419 837.359 67.5697 826.942 67.5697C816.815 67.5697 807.917 71.0419 800.249 77.9863C792.582 84.786 786.578 95.275 782.237 109.453C778.042 123.631 775.944 141.282 775.944 162.404C775.944 183.816 778.042 201.611 782.237 215.789C786.578 229.967 792.582 240.456 800.249 247.256C807.917 253.911 816.815 257.239 826.942 257.239Z" fill="#113340"/>
<path d="M594.348 323.861C569.03 323.861 546.244 318.508 525.989 307.802C505.735 296.952 489.531 279.808 477.379 256.37C465.37 232.788 459.366 202.768 459.366 166.31C459.366 132.601 464.936 103.304 476.076 78.4203C487.361 53.3916 503.275 34.2221 523.819 20.912C544.363 7.60194 568.162 0.946899 595.216 0.946899C617.496 0.946899 637.389 5.28715 654.895 13.9676C672.545 22.5035 686.578 34.1498 696.995 48.9066C707.556 63.6635 713.777 80.0841 715.658 98.1684H633.844C632.687 92.2368 630.3 87.2455 626.683 83.1946C623.066 78.999 618.581 75.9608 613.228 74.0801C607.875 72.1993 601.871 71.2589 595.216 71.2589C583.208 71.2589 573.226 74.8035 565.269 81.8925C557.456 88.9816 551.597 98.9642 547.69 111.84C543.784 124.716 541.686 140.052 541.397 157.847H543.133C547.329 148.443 553.478 140.269 561.579 133.324C569.681 126.38 579.085 121.099 589.791 117.483C600.497 113.866 611.709 112.057 623.428 112.057C642.236 112.057 658.873 116.325 673.341 124.861C687.953 133.252 699.238 145.043 707.195 160.234C715.296 175.425 719.347 192.641 719.347 211.883C719.347 234.018 714.067 253.549 703.505 270.476C693.089 287.259 678.404 300.352 659.452 309.756C640.499 319.159 618.798 323.861 594.348 323.861ZM593.697 260.928C602.378 260.928 610.118 258.902 616.917 254.851C623.862 250.801 629.287 245.303 633.193 238.358C637.1 231.269 639.053 223.385 639.053 214.704C639.053 205.734 637.1 197.777 633.193 190.833C629.287 183.744 623.862 178.246 616.917 174.34C610.118 170.434 602.378 168.48 593.697 168.48C585.306 168.48 577.711 170.434 570.911 174.34C564.111 178.246 558.758 183.744 554.852 190.833C550.946 197.922 548.848 205.879 548.559 214.704C548.848 223.385 550.946 231.269 554.852 238.358C558.758 245.303 564.111 250.801 570.911 254.851C577.711 258.902 585.306 260.928 593.697 260.928Z" fill="#113340"/>
<path d="M353.074 323.861C325.007 323.861 300.701 317.568 280.158 304.981C259.614 292.395 243.844 273.948 232.849 249.643C221.854 225.338 216.356 196.258 216.356 162.404C216.356 128.261 221.854 99.1088 232.849 74.9481C243.844 50.7874 259.614 32.4137 280.158 19.827C300.846 7.24026 325.151 0.946899 353.074 0.946899C381.43 0.946899 405.88 7.24026 426.424 19.827C447.112 32.4137 462.954 50.8598 473.95 75.1651C484.945 99.4705 490.443 128.55 490.443 162.404C490.443 196.547 484.945 225.699 473.95 249.86C462.954 274.021 447.112 292.395 426.424 304.981C405.88 317.568 381.43 323.861 353.074 323.861ZM353.074 257.239C363.49 257.239 372.605 253.911 380.417 247.256C388.374 240.456 394.451 229.967 398.646 215.789C402.987 201.611 405.012 183.816 404.723 162.404C404.723 141.282 402.553 123.631 398.212 109.453C394.017 95.275 388.013 84.786 380.2 77.9863C372.533 71.0419 363.49 67.5697 353.074 67.5697C342.946 67.5697 334.049 71.0419 326.381 77.9863C318.713 84.786 312.709 95.275 308.369 109.453C304.174 123.631 302.076 141.282 302.076 162.404C302.076 183.816 304.174 201.611 308.369 215.789C312.709 229.967 318.713 240.456 326.381 247.256C334.049 253.911 342.946 257.239 353.074 257.239Z" fill="#113340"/>
<path d="M6.33153 260.06L123.084 161.97C132.343 154.302 139.577 147.647 144.785 142.005C150.138 136.363 154.262 130.503 157.155 124.427C160.193 118.206 161.712 111.479 161.712 104.245C161.712 96.2877 159.904 89.2709 156.287 83.1946C152.67 77.1182 147.751 72.561 141.53 69.5228C135.309 66.34 128.148 64.7485 120.046 64.7485C112.089 64.7485 104.927 66.4123 98.5618 69.7398C92.3408 72.9227 87.5665 77.697 84.239 84.0627C81.0561 90.4283 79.4647 98.0238 79.4647 106.849H0.689209C0.689209 85.4371 5.60816 66.7017 15.4461 50.6427C25.4286 34.4391 39.3898 22.1418 57.3294 13.7506C75.2691 5.21481 96.247 0.946899 120.263 0.946899C144.713 0.946899 166.053 4.92546 184.282 12.8826C202.655 20.8397 216.834 32.1244 226.816 46.7365C236.943 61.204 242.007 78.0586 242.007 97.3004C242.007 109.887 239.475 122.04 234.412 133.758C229.493 145.477 220.595 158.57 207.719 173.038C194.843 187.361 176.686 204.36 153.249 224.036L121.348 251.379V253.332H245.696V319.521H6.33153V260.06Z" fill="#113340"/>
</svg>
