<svg width="183" height="56" viewBox="0 0 183 56" fill="none" xmlns="http://www.w3.org/2000/svg">
<path d="M50.2643 5.80389H54.4814V40.977H46.6653C46.9703 42.9622 50.1672 44.8065 54.486 45.5248V50.5C49.2476 49.9726 44.9276 47.9909 42.1444 43.3161C41.5782 42.3649 41.2559 41.3764 41.3241 40.2376C41.3945 39.0582 41.3402 37.8706 41.3402 36.6143H49.8079C49.5514 35.7771 49.0743 35.2508 48.5 34.8061C46.9807 33.6301 45.1957 33.1178 43.3563 32.7557C42.6909 32.6253 42.0161 32.5473 41.3356 32.4437V27.4848C44.4794 27.6257 47.399 28.4151 50.2654 29.8949V5.80389H50.2643Z" fill="#CBE0E3"/>
<path d="M79.9584 46.0418H75.0608C74.9695 45.2582 74.9199 44.4734 74.7835 43.705C74.2613 40.7697 72.727 38.4807 70.3088 36.7912C67.507 34.834 64.3401 33.8641 60.9988 33.4298C60.3946 33.3518 60.2836 33.1213 60.2871 32.5869C60.3068 30.1278 60.3033 27.6676 60.2894 25.2085C60.2871 24.716 60.3599 24.4226 60.963 24.4238C67.1327 24.4401 73.3012 24.4331 79.4708 24.4366C79.6234 24.4366 79.7759 24.4797 79.978 24.5088V28.7679H64.8762C64.867 28.8191 64.8566 28.8715 64.8474 28.9227C65.0264 28.9891 65.202 29.0694 65.3858 29.1195C68.7375 30.037 71.8639 31.4074 74.5374 33.6999C78.349 36.9682 80.0404 41.5184 79.9596 46.0406L79.9584 46.0418Z" fill="#CBE0E3"/>
<path d="M49.9061 26.1027H44.7682C44.3731 19.9877 41.0814 15.3758 36.9105 10.9723V26.1342H32.6357V5.77595C33.5796 5.77595 34.5143 5.77828 35.4478 5.77595C39.0179 5.76663 38.7418 5.55705 41.4199 8.41664C44.789 12.0132 47.5434 16.0139 48.8952 20.833C49.3608 22.4933 49.556 24.2305 49.9061 26.1027Z" fill="#CBE0E3"/>
<path d="M10.4954 5.8202V10.75C6.9507 11.4579 5.06745 13.386 5.03626 16.3026C5.00737 18.934 6.79588 21.251 9.28223 21.8041C12.1268 22.4374 14.4294 21.1241 15.8528 18.0351H20.866C20.5344 22.073 16.546 27.3253 10.0113 27.0039C4.16858 26.7175 -0.328118 21.6387 0.0184926 15.8788C0.396298 9.61008 5.5943 5.7189 10.4954 5.8202Z" fill="#CBE0E3"/>
<path d="M14.7148 5.81552H27.1558V26.1877C25.5983 26.1877 24.0582 26.2029 22.5204 26.1586C22.4003 26.1551 22.1958 25.7371 22.1923 25.5101C22.1646 23.5528 22.175 21.5968 22.1738 19.6396C22.1715 16.7835 22.1704 13.9274 22.1657 11.0713C22.1657 10.8128 22.1415 10.5543 22.1253 10.2248H14.7136V5.81552H14.7148Z" fill="#CBE0E3"/>
<path d="M60.346 10.4658V5.5C62.7007 5.71191 64.9294 6.24284 67.0992 7.02876C71.0806 8.47136 74.5848 10.6021 77.0885 14.1521C79.0538 16.9395 79.8833 20.0878 80 23.462C80.0035 23.5622 79.9723 23.6635 79.9492 23.816H75.0966C74.936 22.7751 74.8494 21.747 74.6125 20.7562C73.895 17.7522 72.1181 15.4992 69.574 13.8354C67.0969 12.2158 64.3621 11.2553 61.4806 10.6836C61.1248 10.6126 60.7666 10.5462 60.3472 10.4658H60.346Z" fill="#CBE0E3"/>
<path d="M142.994 13.1669C142.994 13.1669 145.735 15.0513 144.849 16.3238C144.849 16.3238 144.034 17.1477 143.001 17.8622C143.001 17.8622 140.551 19.3681 140.715 25.3864C140.715 25.3864 141.186 23.4108 143.401 22.2573C143.401 22.2573 146.157 20.8576 148.193 18.7236C148.193 18.7236 148.684 18.1983 148.992 18.828C148.992 18.828 149.174 20.3322 149.228 21.2361C149.228 21.2361 149.215 21.378 149.457 21.285C149.457 21.285 153.309 19.4692 154.702 16.2194C154.702 16.2194 154.794 15.9339 154.514 15.9257C154.514 15.9257 152.32 16.7528 150.618 16.1492C150.618 16.1492 151.837 15.265 153.209 12.3202C153.209 12.3202 154.16 9.99867 157.232 10.4555C157.142 10.4424 157.002 10.3152 156.913 10.2728C156.642 10.1373 156.354 10.0411 156.067 9.96115C153.832 9.34283 151.547 10.2385 149.77 11.7786C149.278 12.2044 148.821 12.795 148.292 13.1571C148.292 13.1571 147.497 14.0805 145.956 13.0266C145.956 13.0266 144.621 11.8618 142.993 13.1669H142.994Z" fill="#CBE0E3"/>
<path d="M160.855 22.8985C160.242 22.4498 159.26 21.9571 158.647 21.5493C161.76 24.76 163.507 27.7537 162.288 29.098C160.399 31.1813 154.735 28.7342 147.916 24.3146C147.844 24.2673 147.768 24.202 147.698 24.1498C149.304 26.0194 151.514 28.0506 154.143 29.9757C160.893 34.919 167.864 37.3433 169.718 35.3872C171.571 33.4327 167.605 27.8418 160.857 22.8985H160.855Z" fill="#CBE0E3"/>
<path d="M176.836 2.96063C175.815 -0.209264 169.113 -1.20118 159.97 1.81536C154.499 3.61973 149.261 6.54328 146.342 8.72942C148.218 7.66245 150.72 6.70153 153.299 5.80913C160.137 3.44517 166.077 2.98837 167.139 5.48284C168.2 7.98222 163.855 11.4719 156.931 14.6989C156.876 14.725 156.817 14.7331 156.761 14.7494C159.481 14.1589 162.54 13.4818 164.892 12.6335C174.645 9.11444 177.858 6.13379 176.837 2.959L176.836 2.96063Z" fill="#CBE0E3"/>
<path d="M166.209 14.6173C163.301 14.4052 159.753 14.6173 157.363 14.7315C165.357 15.123 170.641 16.6419 170.566 18.6013C170.506 20.1805 165.484 21.3878 158.208 21.4465C160.565 21.9033 163.049 22.1496 165.929 22.3601C175.156 23.0323 180.469 21.7206 180.528 19.6764C180.586 17.6354 175.438 15.2894 166.211 14.6156L166.209 14.6173Z" fill="#CBE0E3"/>
<path d="M147.277 24.6735C142.803 29.514 136.938 31.6153 134.179 29.3721C131.418 27.1272 132.806 21.3861 137.281 16.5473C137.563 16.2422 137.939 15.9306 138.232 15.6483C136.353 16.8931 134.359 18.5246 132.583 20.4448C126.798 26.703 124.61 33.8112 127.698 36.322C130.785 38.8295 137.978 35.7902 143.764 29.5336C145.421 27.7422 146.736 25.9542 147.763 24.1531C147.59 24.3521 147.459 24.4777 147.277 24.6751V24.6735Z" fill="#CBE0E3"/>
<path d="M130.871 9.43257C131.657 7.03761 138.593 6.58896 146.291 8.34603C144.455 7.59067 142.155 6.88589 139.869 6.33119C131.754 4.36041 124.513 4.77806 123.696 7.26764C122.878 9.75396 128.792 13.3692 136.907 15.34C137.434 15.4689 137.879 15.5652 138.245 15.6435C133.342 13.7135 130.267 11.2679 130.871 9.43257Z" fill="#CBE0E3"/>
<path fill-rule="evenodd" clip-rule="evenodd" d="M141.522 48.2968C142.081 48.1369 142.622 47.9836 143.162 47.8302C143.162 47.8384 143.161 47.8482 143.159 47.8563C143.19 47.871 143.222 47.8873 143.255 47.8971C143.274 47.902 143.297 47.8938 143.319 47.889C143.597 47.8221 143.884 47.8025 144.161 47.7111C144.291 47.6687 144.435 47.592 144.59 47.6344C144.613 47.641 144.647 47.61 144.677 47.5937C144.819 47.5154 144.994 47.5039 145.106 47.362C145.142 47.3163 145.244 47.3098 145.318 47.3082C145.495 47.3016 145.656 47.3359 145.791 47.468C145.861 47.5349 145.966 47.5643 146.048 47.6181C146.215 47.7274 146.421 47.8106 146.528 47.9624C146.655 48.1418 146.817 48.3343 146.785 48.5921C146.77 48.7161 146.647 48.8874 146.525 48.8841C146.405 48.8809 146.317 48.9412 146.245 49.0081C145.857 49.3719 145.458 49.7276 145.101 50.1191C144.778 50.4732 144.502 50.8696 144.29 51.3036C144.253 51.377 144.197 51.4422 144.153 51.5124C144.133 51.545 144.118 51.5793 144.094 51.6331C144.212 51.6331 144.31 51.6364 144.405 51.6331C144.82 51.6135 145.236 51.5907 145.651 51.5711C145.722 51.5679 145.796 51.5858 145.867 51.5825C146.016 51.5744 146.166 51.5564 146.314 51.5466C146.368 51.5434 146.424 51.5466 146.479 51.5532C146.607 51.5744 146.739 51.5238 146.868 51.594C146.916 51.6201 146.998 51.5825 147.082 51.594C147.052 51.6233 147.028 51.6608 146.993 51.6837C146.851 51.7767 146.757 51.9039 146.695 52.0589C146.657 52.1535 146.563 52.1617 146.479 52.1862C146.362 52.2204 146.245 52.2596 146.129 52.2971C146.108 52.3036 146.09 52.3151 146.068 52.3216C145.836 52.3917 145.603 52.4586 145.373 52.5353C145.299 52.5598 145.236 52.6201 145.162 52.6381C144.598 52.7719 144.033 52.8959 143.469 53.028C143.263 53.0769 143.057 53.1259 142.857 53.196C142.638 53.2727 142.427 53.3722 142.215 53.4652C142.038 53.5419 141.855 53.6072 141.69 53.7034C141.544 53.7882 141.422 53.9122 141.282 54.0085C141.202 54.0623 141.11 54.0999 141.019 54.1374C140.832 54.2173 140.677 54.338 140.589 54.5191C140.517 54.6692 140.403 54.7051 140.253 54.6986C140.217 54.697 140.171 54.7035 140.144 54.7247C139.999 54.834 139.824 54.8389 139.686 54.7231C139.406 54.4914 139.248 54.1961 139.191 53.8388C139.165 53.6724 139.101 53.5125 139.063 53.3494C139.035 53.2319 139.009 53.1112 139.002 52.9905C139 52.9497 139.055 52.8877 139.099 52.8649C139.267 52.7784 139.44 52.6984 139.615 52.6283C139.879 52.5239 140.144 52.4227 140.415 52.3346C140.637 52.2612 140.868 52.2074 141.095 52.1503C141.165 52.1323 141.239 52.1356 141.308 52.1209C141.453 52.0899 141.596 52.0524 141.741 52.0165C141.814 51.9986 141.888 51.9676 141.961 51.9659C142.155 51.9594 142.254 51.8615 142.312 51.6821C142.369 51.5042 142.449 51.3329 142.536 51.1682C142.656 50.9349 142.795 50.7113 142.922 50.4813C143.049 50.2513 143.169 50.018 143.296 49.7879C143.424 49.5514 143.556 49.3148 143.685 49.0783C143.705 49.0407 143.716 49 143.738 48.9445C143.673 48.9527 143.624 48.9559 143.576 48.9641C143.475 48.982 143.372 48.9934 143.274 49.0212C143.179 49.0473 143.09 49.0962 142.996 49.124C142.856 49.168 142.711 49.199 142.571 49.243C142.483 49.2708 142.399 49.3099 142.315 49.3491C142.186 49.4095 142.058 49.4731 141.929 49.5367C141.766 49.6183 141.671 49.7651 141.567 49.9038C141.446 50.0653 141.308 50.124 141.11 50.0669C140.957 50.0229 140.779 50.0115 140.69 49.8467C140.584 49.6542 140.479 49.46 140.464 49.2333C140.459 49.1517 140.444 49.0685 140.424 48.9885C140.372 48.7748 140.449 48.5905 140.56 48.4159C140.818 48.0113 141.082 47.61 141.343 47.2054C141.356 47.1858 141.361 47.1613 141.371 47.132C141.163 47.0977 140.978 47.1744 140.787 47.2037C140.629 47.2266 140.462 47.2445 140.306 47.2217C140.157 47.2005 140.037 47.0961 139.981 46.9492C139.937 46.8318 139.876 46.7127 139.937 46.5773C139.953 46.5397 139.922 46.4843 139.93 46.4402C139.95 46.3423 139.963 46.2363 140.014 46.1547C140.171 45.9067 140.228 45.6229 140.344 45.3602C140.388 45.2574 140.489 45.1563 140.589 45.1008C140.766 45.0062 140.958 44.9409 141.15 44.8757C141.288 44.83 141.389 44.8953 141.425 45.0323C141.436 45.0731 141.436 45.1204 141.456 45.1579C141.474 45.1938 141.507 45.2411 141.54 45.246C141.732 45.2819 141.926 45.3015 142.117 45.3357C142.275 45.3635 142.43 45.4075 142.587 45.4385C142.691 45.4597 142.798 45.4695 142.904 45.4907C143.149 45.5413 143.395 45.5919 143.637 45.6522C143.777 45.6881 143.914 45.7403 144.052 45.7877C144.178 45.8301 144.301 45.8774 144.427 45.9198C144.514 45.9492 144.573 46.0503 144.563 46.1629C144.54 46.419 144.402 46.5789 144.146 46.6295C144.042 46.6507 143.937 46.6539 143.832 46.6654C143.817 46.6654 143.8 46.6621 143.789 46.6686C143.4 46.8399 142.976 46.8187 142.567 46.8872C142.397 46.915 142.233 46.977 142.069 47.0341C141.938 47.0798 141.878 47.2005 141.835 47.3179C141.732 47.6018 141.638 47.8889 141.542 48.1761C141.53 48.2103 141.532 48.2495 141.527 48.2984L141.522 48.2968Z" fill="#CBE0E3"/>
<path fill-rule="evenodd" clip-rule="evenodd" d="M153.469 51.5939C153.356 51.558 153.243 51.5189 153.13 51.4862C152.889 51.4161 152.653 51.4096 152.414 51.5058C152.337 51.5368 152.243 51.5319 152.157 51.5466C151.771 51.6086 151.445 51.4683 151.13 51.2644C150.893 51.111 150.646 50.974 150.398 50.8353C150.354 50.8108 150.29 50.8222 150.232 50.8157C150.232 50.8206 150.235 50.7929 150.239 50.7635C150.225 50.7602 150.211 50.7521 150.206 50.7553C150.171 50.7831 150.125 50.8076 150.11 50.8451C150.016 51.0751 149.932 51.3084 149.841 51.5401C149.777 51.7 149.706 51.8566 149.622 52.0099C149.64 51.9479 149.658 51.8859 149.676 51.8239C149.673 51.8223 149.668 51.819 149.665 51.8174C149.619 51.8908 149.583 51.9724 149.526 52.036C149.368 52.2204 149.202 52.3966 149.042 52.5777C149.002 52.6233 148.974 52.6788 148.938 52.7294C148.851 52.8485 148.77 52.9725 148.668 53.0785C148.633 53.1144 148.546 53.116 148.485 53.1095C148.404 53.1014 148.326 53.0622 148.246 53.0492C148.026 53.0149 147.824 52.7571 147.779 52.5075C147.649 51.7848 147.814 51.1012 148.028 50.4225C148.13 50.0962 148.233 49.77 148.34 49.4469C148.376 49.3344 148.434 49.2283 148.478 49.119C148.569 48.8922 148.654 48.6638 148.75 48.4403C148.818 48.2804 148.903 48.1271 148.973 47.9672C149.02 47.8563 149.057 47.7404 149.098 47.6262C149.104 47.6099 149.106 47.5903 149.114 47.5757C149.165 47.4957 149.22 47.419 149.273 47.3407C149.388 47.1678 149.515 47.0014 149.617 46.8203C149.696 46.68 149.784 46.5609 149.909 46.4532C150.019 46.3602 150.12 46.3782 150.23 46.401C150.349 46.4255 150.464 46.4695 150.581 46.5005C150.618 46.5103 150.657 46.5054 150.695 46.5071C150.85 46.5136 151.005 46.5234 151.16 46.525C151.204 46.525 151.251 46.5038 151.297 46.4908C151.453 46.4451 151.605 46.4728 151.753 46.5266C151.879 46.5723 152.009 46.605 152.128 46.6621C152.251 46.7224 152.367 46.804 152.484 46.879C152.545 46.9182 152.601 46.9639 152.658 47.0063C152.793 47.1042 152.859 47.2428 152.876 47.4027C152.884 47.4941 152.782 47.6132 152.665 47.6393C152.371 47.7029 152.157 47.8791 151.964 48.0896C151.945 48.1108 151.9 48.1091 151.867 48.1189C151.846 48.1255 151.818 48.1287 151.803 48.145C151.551 48.4224 151.298 48.7014 151.048 48.982C151.015 49.0195 150.992 49.0652 150.965 49.1092C150.929 49.1679 150.934 49.2185 150.984 49.2756C151.092 49.3996 151.209 49.5203 151.297 49.659C151.475 49.9396 151.76 50.1028 151.996 50.3198C152.095 50.4095 152.198 50.4959 152.306 50.5759C152.403 50.6477 152.513 50.7015 152.609 50.7733C152.724 50.8598 152.836 50.9511 152.943 51.049C153.116 51.2089 153.285 51.3737 153.454 51.5368C153.466 51.5482 153.476 51.5629 153.486 51.5776C153.481 51.5841 153.476 51.5906 153.471 51.5955L153.469 51.5939Z" fill="#CBE0E3"/>
<path fill-rule="evenodd" clip-rule="evenodd" d="M154.989 52.9742C154.959 52.9562 154.941 52.9432 154.898 52.917C154.879 53.0329 154.862 53.1373 154.837 53.2776C154.773 53.214 154.704 53.1732 154.679 53.1145C154.592 52.9024 154.516 52.6854 154.445 52.4668C154.402 52.333 154.349 52.2025 154.364 52.0524C154.376 51.9431 154.364 51.824 154.328 51.7212C154.257 51.5107 154.28 51.2938 154.254 51.08C154.232 50.912 154.252 50.7374 154.244 50.5661C154.239 50.4389 154.211 50.3133 154.208 50.186C154.199 49.8891 154.206 49.5922 154.198 49.2952C154.185 48.7993 154.231 48.3066 154.292 47.8172C154.326 47.5398 154.377 47.2641 154.425 46.9884C154.476 46.6915 154.532 46.3945 154.59 46.0992C154.625 45.9198 154.664 45.742 154.701 45.5625C154.707 45.5315 154.719 45.4989 154.715 45.4679C154.694 45.2688 154.824 45.1612 154.972 45.0763C155.029 45.0437 155.114 45.0568 155.185 45.0584C155.406 45.0617 155.63 45.0502 155.848 45.0812C155.978 45.0992 156.1 45.1807 156.224 45.2395C156.285 45.2688 156.347 45.3031 156.4 45.3472C156.543 45.463 156.573 45.5527 156.492 45.7256C156.35 46.0291 156.196 46.326 156.047 46.6262C156.013 46.6964 155.993 46.7763 155.955 46.8448C155.798 47.1238 155.726 47.4272 155.671 47.7356C155.62 48.0178 155.587 48.305 155.541 48.5888C155.51 48.7764 155.465 48.9608 155.436 49.1484C155.396 49.4111 155.366 49.6754 155.33 49.9397C155.286 50.2627 155.248 50.5857 155.197 50.9087C155.103 51.5026 154.997 52.0932 155.015 52.6984C155.017 52.7865 155.001 52.8763 154.992 52.9774L154.989 52.9742Z" fill="#CBE0E3"/>
<path fill-rule="evenodd" clip-rule="evenodd" d="M133.183 48.8123C133.114 48.9249 133.124 48.9706 133.243 49.0228C133.559 49.1598 133.859 49.3262 134.139 49.5253C134.304 49.6427 134.486 49.7455 134.589 49.9364C134.622 49.9984 134.703 50.0392 134.769 50.0799C134.944 50.186 134.997 50.3361 134.899 50.5204C134.807 50.6966 134.705 50.8696 134.598 51.0392C134.548 51.1175 134.479 51.1812 134.42 51.253C134.425 51.2627 134.431 51.2725 134.436 51.2807C134.51 51.2725 134.586 51.266 134.66 51.2546C134.86 51.222 135.059 51.1877 135.259 51.1518C135.329 51.1388 135.364 51.0931 135.356 51.0197C135.29 50.4454 135.334 49.8728 135.399 49.3017C135.451 48.8303 135.529 48.362 135.598 47.8938C135.644 47.5855 135.689 47.2755 135.751 46.9688C135.789 46.7828 135.857 46.605 135.911 46.4222C135.956 46.2787 136.004 46.1351 136.047 45.9899C136.073 45.9051 136.168 45.8186 136.259 45.8072C136.322 45.799 136.383 45.7811 136.445 45.7811C136.76 45.7811 137.073 45.7778 137.388 45.7941C137.583 45.8039 137.721 45.941 137.865 46.0584C138.026 46.1922 138.043 46.5169 137.769 46.6327C137.749 46.6409 137.721 46.6523 137.713 46.6702C137.609 46.8774 137.431 47.0438 137.382 47.2836C137.334 47.5104 137.25 47.729 137.185 47.9525C137.154 48.0635 137.167 48.0798 137.284 48.0651C137.514 48.0374 137.744 48.0031 137.973 47.9689C138.369 47.9118 138.765 47.8498 139.16 47.7943C139.368 47.7649 139.577 47.7486 139.787 47.7258C139.79 47.7372 139.795 47.7486 139.798 47.7584C139.777 47.7714 139.759 47.7894 139.735 47.7992C139.435 47.9101 139.188 48.1075 138.926 48.2805C138.878 48.3115 138.849 48.3718 138.801 48.3979C138.628 48.4925 138.45 48.5774 138.277 48.672C138.221 48.703 138.178 48.7568 138.128 48.7993C138.133 48.8074 138.138 48.8156 138.143 48.8237C138.166 48.8237 138.189 48.827 138.219 48.8286C138.211 48.8433 138.206 48.8547 138.198 48.8629C138.163 48.8971 138.132 48.9347 138.092 48.9608C138.008 49.0162 137.917 49.0505 137.879 49.1663C137.856 49.2349 137.757 49.2756 137.698 49.3344C137.627 49.4062 137.578 49.4991 137.464 49.5171C137.457 49.5171 137.448 49.5301 137.446 49.5383C137.416 49.6802 137.286 49.7047 137.181 49.7553C137.016 49.8336 136.871 49.9315 136.825 50.1175C136.796 50.2333 136.792 50.354 136.782 50.4731C136.762 50.7097 136.717 50.9495 136.737 51.1828C136.759 51.4536 136.706 51.7147 136.703 51.9822C136.699 52.2416 136.699 52.5026 136.676 52.762C136.666 52.8844 136.607 53.0019 136.569 53.121C136.557 53.1585 136.536 53.1944 136.536 53.2319C136.538 53.3591 136.431 53.3885 136.348 53.4326C136.322 53.4472 136.259 53.4081 136.221 53.382C136.162 53.3428 136.098 53.3037 136.053 53.2498C135.824 52.9774 135.653 52.6739 135.529 52.3395C135.483 52.2139 135.476 52.2139 135.344 52.253C135.137 52.315 134.927 52.3754 134.723 52.4488C134.322 52.594 133.922 52.7408 133.53 52.9023C133.348 52.9774 133.185 53.0932 133.012 53.1846C132.976 53.2042 132.921 53.1927 132.883 53.2123C132.742 53.2841 132.598 53.3559 132.465 53.4423C132.152 53.6463 131.842 53.8551 131.535 54.0705C131.42 54.152 131.324 54.2515 131.247 54.3788C131.204 54.4506 131.123 54.5273 130.986 54.5452C130.835 54.5648 130.757 54.4326 130.627 54.4522C130.485 54.3168 130.281 54.245 130.2 54.0476C130.187 54.015 130.165 53.9775 130.172 53.9465C130.226 53.6789 130.111 53.4342 130.073 53.1797C130.045 52.9921 130.03 52.8028 130.012 52.6136C130.01 52.594 130.019 52.5581 130.032 52.5532C130.21 52.4765 130.338 52.3134 130.554 52.2954C130.689 52.284 130.82 52.2122 130.953 52.1682C131.174 52.0948 131.395 52.0148 131.617 51.9479C131.856 51.8778 132.099 51.8191 132.341 51.7587C132.442 51.7342 132.547 51.7212 132.648 51.6967C132.758 51.669 132.824 51.5956 132.85 51.4781C132.832 51.483 132.817 51.4862 132.816 51.4862C132.865 51.2725 133.009 51.0833 133.03 50.8402C132.669 50.8842 132.367 51.005 132.124 51.2546C132.091 51.2872 132.041 51.3182 131.998 51.3215C131.866 51.3329 131.73 51.3508 131.603 51.328C131.467 51.3035 131.416 51.1763 131.349 51.0637C131.243 50.8908 131.212 50.6983 131.138 50.5188C131.08 50.3818 131.149 50.2676 131.214 50.1566C131.352 49.9168 131.494 49.6786 131.637 49.4404C131.667 49.3915 131.711 49.3491 131.739 49.2985C131.772 49.2397 131.784 49.168 131.822 49.1141C131.881 49.0293 131.955 48.9542 132.023 48.8743C132.026 48.8694 132.036 48.8678 132.038 48.8629C132.165 48.5725 132.412 48.3669 132.58 48.1043C132.588 48.0912 132.59 48.0749 132.602 48.039C132.503 48.0586 132.419 48.0749 132.334 48.0928C132.165 48.1287 131.99 48.1532 131.825 48.207C131.581 48.287 131.326 48.2772 131.078 48.3408C130.835 48.4045 130.625 48.5219 130.434 48.6769C130.282 48.7993 130.142 48.933 129.968 49.0293C129.832 49.1043 129.603 49.0538 129.514 48.9396C129.471 48.8857 129.442 48.8237 129.4 48.7699C129.323 48.6655 129.333 48.5513 129.361 48.4371C129.394 48.3033 129.437 48.1712 129.473 48.0374C129.494 47.9607 129.506 47.8791 129.534 47.8041C129.605 47.6116 129.676 47.4191 129.757 47.2298C129.808 47.1091 129.908 47.0422 130.035 46.9933C130.198 46.9313 130.35 46.8415 130.505 46.7648C130.563 46.7355 130.62 46.7061 130.694 46.6686C130.699 46.7257 130.703 46.7681 130.708 46.8203C130.746 46.8154 130.783 46.8105 130.821 46.804C131.215 46.729 131.609 46.6555 132.003 46.5805C132.102 46.5625 132.214 46.5984 132.293 46.5022C132.302 46.4924 132.331 46.5006 132.349 46.4989C132.616 46.4989 132.883 46.4989 133.15 46.4973C133.267 46.4973 133.384 46.494 133.501 46.4908C133.612 46.4875 133.722 46.4679 133.831 46.481C133.975 46.4973 134.131 46.4549 134.255 46.5707C134.354 46.6621 134.458 46.7469 134.556 46.8399C134.575 46.8562 134.576 46.8921 134.583 46.9182C134.606 47.021 134.627 47.1254 134.65 47.2282C134.654 47.2445 134.66 47.2608 134.659 47.2755C134.631 47.4631 134.738 47.6181 134.794 47.7812C134.87 48.0047 134.71 48.256 134.471 48.2331C134.225 48.2103 133.999 48.2821 133.773 48.349C133.684 48.3751 133.607 48.4485 133.531 48.5089C133.411 48.6067 133.297 48.7128 133.182 48.8139C133.202 48.7666 133.22 48.7193 133.241 48.6639C133.109 48.7046 133.056 48.7764 133.086 48.8694C133.119 48.8498 133.152 48.8303 133.183 48.8107V48.8123ZM132.178 50.2578C132.186 50.2659 132.196 50.2725 132.204 50.2806C132.239 50.2643 132.274 50.2447 132.308 50.2317C132.605 50.1175 132.903 50.0033 133.2 49.8907C133.292 49.8564 133.317 49.8026 133.258 49.7259C133.172 49.6166 133.078 49.5122 132.991 49.4045C132.951 49.3556 132.916 49.3001 132.872 49.2365C132.598 49.553 132.407 49.9184 132.176 50.2578H132.178Z" fill="#CBE0E3"/>
<path fill-rule="evenodd" clip-rule="evenodd" d="M133.449 45.7681C133.398 45.7876 133.347 45.817 133.292 45.8268C133.192 45.8464 133.089 45.861 132.987 45.8643C132.573 45.8806 132.16 45.8888 131.746 45.91C131.662 45.9149 131.575 45.9491 131.497 45.9867C131.271 46.0943 131.013 45.9785 130.938 45.7371C130.876 45.5348 130.851 45.3292 130.897 45.1269C130.95 44.8985 130.985 44.6554 131.179 44.4841C131.252 44.4205 131.329 44.396 131.426 44.3944C131.622 44.3911 131.819 44.3846 132.013 44.3617C132.432 44.3112 132.834 44.365 133.221 44.5282C133.429 44.6146 133.579 44.7729 133.703 44.954C133.765 45.047 133.83 45.1416 133.895 45.2329C133.938 45.2933 133.92 45.3406 133.854 45.3455C133.579 45.3667 133.543 45.5935 133.45 45.7664L133.449 45.7681Z" fill="#CBE0E3"/>
<path fill-rule="evenodd" clip-rule="evenodd" d="M125.55 51.4699C125.346 51.6983 125.146 51.93 124.934 52.1503C124.873 52.2139 124.777 52.2481 124.696 52.2906C124.582 52.3509 124.465 52.3982 124.334 52.4243C124.114 52.4684 123.987 52.3558 123.865 52.2155C123.743 52.0752 123.625 51.9333 123.509 51.7897C123.475 51.7473 123.455 51.6918 123.434 51.6527C123.582 51.5548 123.724 51.4683 123.856 51.3704C123.959 51.2937 124.042 51.191 124.147 51.1159C124.508 50.8614 124.634 50.4487 124.858 50.1028C124.988 49.9021 125.102 49.6917 125.219 49.4828C125.248 49.429 125.266 49.367 125.288 49.3148C125.161 49.3425 125.046 49.3703 124.93 49.3915C124.813 49.4111 124.691 49.4111 124.578 49.4404C124.162 49.5497 123.748 49.6672 123.333 49.783C123.236 49.8108 123.14 49.8467 123.043 49.8711C122.499 50.0049 121.937 50.2513 121.472 50.5645C121.327 50.6624 121.185 50.7652 121.045 50.8696C121.024 50.8859 121.006 50.9136 120.996 50.9397C120.953 51.0572 120.857 51.1306 120.763 51.204C120.739 51.2236 120.687 51.2269 120.655 51.2171C120.501 51.1763 120.381 51.0817 120.287 50.9577C120.185 50.8206 120.124 50.6771 120.132 50.4943C120.139 50.3475 120.074 50.199 120.055 50.049C120.028 49.8516 120.007 49.6509 120 49.4518C119.997 49.3507 120.063 49.3213 120.167 49.2936C120.32 49.2528 120.467 49.1892 120.618 49.137C120.969 49.0163 121.319 48.8874 121.675 48.7797C122.062 48.6622 122.453 48.5546 122.847 48.4632C123.406 48.3343 123.969 48.2185 124.533 48.1075C124.788 48.057 125.049 48.026 125.309 47.9933C125.433 47.977 125.56 47.9754 125.685 47.9689C125.768 47.964 125.819 47.9248 125.825 47.8498C125.954 47.8253 126.076 47.7976 126.198 47.7813C126.333 47.7633 126.471 47.7698 126.603 47.7421C126.682 47.7242 126.752 47.6605 126.827 47.6197C126.857 47.6034 126.897 47.5741 126.923 47.5806C127.032 47.6099 127.144 47.6377 127.24 47.6932C127.381 47.7747 127.51 47.8791 127.645 47.9721C127.681 47.9966 127.726 48.0113 127.765 48.0325C127.942 48.1271 128.021 48.3 128.12 48.4567C128.14 48.4893 128.14 48.5464 128.125 48.5839C128.079 48.7046 128.008 48.8042 127.882 48.8613C127.836 48.8825 127.803 48.9314 127.765 48.9689C127.673 49.0603 127.581 49.15 127.492 49.2447C127.457 49.2822 127.381 49.3083 127.436 49.3833C127.441 49.3899 127.426 49.4127 127.416 49.4241C127.348 49.4926 127.279 49.5595 127.21 49.6264C126.991 49.845 126.765 50.0571 126.554 50.2855C126.397 50.4552 126.265 50.6477 126.115 50.8239C125.951 51.0148 125.777 51.1991 125.609 51.3867C125.586 51.4128 125.568 51.4455 125.548 51.4748L125.55 51.4699Z" fill="#CBE0E3"/>
<path fill-rule="evenodd" clip-rule="evenodd" d="M126.738 45.9932C127.043 45.9214 127.35 45.91 127.66 45.9475C127.798 45.9638 127.938 45.9654 128.077 45.9769C128.222 45.9899 128.252 46.0405 128.159 46.1482C128.083 46.2379 127.976 46.2999 127.889 46.3831C127.718 46.5462 127.502 46.649 127.314 46.7861C127.169 46.8937 127.015 46.9247 126.851 46.9541C126.766 46.9688 126.689 47.021 126.605 47.0455C126.287 47.1368 125.964 47.2151 125.649 47.3146C125.444 47.3799 125.25 47.4729 125.049 47.5528C124.983 47.5789 124.915 47.6083 124.846 47.6181C124.713 47.636 124.622 47.5708 124.559 47.4533C124.444 47.238 124.353 47.0145 124.314 46.773C124.284 46.5984 124.335 46.5381 124.51 46.5103C124.594 46.4973 124.676 46.4745 124.757 46.45C124.938 46.3945 125.116 46.3325 125.298 46.2754C125.387 46.2477 125.453 46.202 125.499 46.1188C125.624 45.8888 125.756 45.662 125.88 45.432C125.909 45.3781 125.924 45.3145 125.952 45.2329C125.83 45.2443 125.733 45.2558 125.636 45.2623C125.451 45.2737 125.266 45.2753 125.084 45.29C124.818 45.3112 124.553 45.3357 124.289 45.3683C124.207 45.3781 124.134 45.4156 124.127 45.5201C124.099 45.8855 124.058 46.2509 124.04 46.618C124.035 46.7339 124.083 46.853 124.111 46.9704C124.134 47.0634 124.095 47.1613 124.007 47.2135C123.989 47.2249 123.977 47.2461 123.963 47.2624C123.917 47.3065 123.879 47.3636 123.798 47.3293C123.778 47.3212 123.742 47.3293 123.724 47.3424C123.605 47.4321 123.468 47.4174 123.336 47.406C123.167 47.3913 123.008 47.3277 122.876 47.2233C122.769 47.1385 122.717 47.0128 122.698 46.8758C122.692 46.8252 122.689 46.773 122.672 46.7241C122.545 46.3521 122.486 45.9687 122.461 45.5804C122.426 45.0616 122.408 44.5428 122.375 44.0257C122.37 43.9392 122.336 43.8495 122.3 43.7695C122.247 43.6553 122.319 43.5754 122.377 43.5118C122.443 43.44 122.547 43.3992 122.634 43.3453C122.639 43.3421 122.647 43.3405 122.652 43.3405C122.745 43.3535 122.837 43.3633 122.928 43.3812C123.002 43.3976 123.073 43.4269 123.145 43.4465C123.323 43.4938 123.503 43.5379 123.681 43.5852C123.737 43.5999 123.803 43.6113 123.839 43.6488C123.936 43.7499 124.075 43.7336 124.188 43.7826C124.279 43.8217 124.362 43.8544 124.398 43.9522C124.408 43.9783 124.426 44.0077 124.447 44.0224C124.551 44.0974 124.592 44.1904 124.563 44.3161C124.558 44.334 124.586 44.3781 124.599 44.3797C124.718 44.3846 124.838 44.396 124.955 44.3797C125.159 44.3536 125.362 44.3095 125.566 44.2736C125.708 44.2492 125.852 44.2231 125.995 44.2068C126.353 44.1643 126.613 44.303 126.785 44.6162C126.851 44.737 126.943 44.8446 126.999 44.9703C127.035 45.0535 127.06 45.166 127.033 45.246C126.964 45.4499 126.864 45.6424 126.775 45.8398C126.755 45.8822 126.737 45.9263 126.717 45.9687C126.724 45.9769 126.73 45.9834 126.737 45.9916L126.738 45.9932Z" fill="#CBE0E3"/>
<path fill-rule="evenodd" clip-rule="evenodd" d="M121.85 51.204C121.947 51.2627 122.034 51.3084 122.113 51.3639C122.201 51.4259 122.252 51.5107 122.28 51.6167C122.316 51.7554 122.352 51.899 122.417 52.0262C122.458 52.1078 122.542 52.1731 122.616 52.2351C122.81 52.3966 123.007 52.5597 123.254 52.638C123.417 52.6886 123.587 52.7245 123.757 52.749C123.941 52.7751 124.127 52.7963 124.312 52.7914C124.452 52.7865 124.592 52.7375 124.731 52.7033C124.927 52.656 125.12 52.6021 125.316 52.5581C125.352 52.5499 125.395 52.5711 125.435 52.576C125.463 52.5793 125.494 52.5858 125.517 52.576C125.744 52.4896 125.97 52.4015 126.196 52.3101C126.374 52.2383 126.552 52.1698 126.725 52.0882C126.902 52.005 127.075 51.9137 127.241 51.8125C127.398 51.7163 127.548 51.6086 127.693 51.4976C127.755 51.4487 127.805 51.3818 127.853 51.3182C127.864 51.3019 127.841 51.2611 127.853 51.2431C127.909 51.1436 127.988 51.0637 128.1 51.0115C128.108 51.1094 128.158 51.1648 128.255 51.1763C128.217 51.3524 128.273 51.5009 128.38 51.6396C128.402 51.6673 128.407 51.7097 128.416 51.7473C128.446 51.8533 128.486 51.9577 128.499 52.067C128.517 52.222 128.39 52.3248 128.321 52.4455C128.22 52.6217 128.103 52.7881 127.945 52.9252C127.716 53.1258 127.497 53.3379 127.205 53.4521C126.859 53.5859 126.508 53.7099 126.165 53.8502C125.913 53.953 125.662 54.0672 125.421 54.1944C125.173 54.3249 124.927 54.3869 124.645 54.2988C124.456 54.2401 124.254 54.2222 124.058 54.1863C124.01 54.1765 123.963 54.1667 123.918 54.152C123.752 54.1014 123.584 54.0557 123.42 53.9938C123.148 53.891 122.883 53.7719 122.609 53.674C122.323 53.5712 122.1 53.3771 121.861 53.2025C121.77 53.1356 121.695 53.0491 121.611 52.9741C121.569 52.9382 121.52 52.9105 121.482 52.873C121.352 52.7424 121.284 52.5695 121.289 52.3998C121.294 52.191 121.311 51.974 121.459 51.7913C121.558 51.6706 121.615 51.5189 121.7 51.3851C121.741 51.3182 121.8 51.2627 121.85 51.204Z" fill="#CBE0E3"/>
<path fill-rule="evenodd" clip-rule="evenodd" d="M125.548 51.4716C125.606 51.4227 125.664 51.3737 125.721 51.3248C125.674 51.4732 125.632 51.5075 125.55 51.47L125.548 51.4716Z" fill="#CBE0E3"/>
<path d="M160.092 52.4651C160.367 52.5336 160.603 52.4341 160.845 52.3085C160.941 52.2596 161.065 52.2237 161.154 52.2335C161.347 52.2563 161.53 52.1747 161.719 52.1029C161.755 52.0882 161.795 52.0801 161.831 52.0752C162.049 52.0409 162.266 52.0295 162.482 51.9675C162.838 51.8664 163.194 51.744 163.549 51.6102C163.649 51.5727 163.748 51.4732 163.832 51.3884C163.911 51.31 163.959 51.2056 164.038 51.1257C164.192 50.9723 164.243 50.801 164.29 50.6297C164.346 50.4307 164.455 50.2708 164.651 50.1419C164.694 50.1142 164.721 50.0571 164.754 50.0147C164.757 50.0114 164.757 50.0049 164.759 50.0016C164.829 49.7194 164.963 49.4633 165.227 49.2398C165.355 49.1304 165.385 48.9673 165.332 48.8792C165.255 48.7503 165.202 48.7389 164.984 48.8156C164.861 48.8596 164.739 48.9135 164.615 48.9494C164.498 48.9852 164.381 49.0032 164.264 49.0309C164.178 49.0521 164.093 49.0799 164.009 49.1011C163.816 49.1468 163.625 49.1859 163.432 49.2365C163.242 49.2871 163.053 49.3507 162.863 49.4045C162.794 49.4241 162.716 49.4453 162.654 49.4404C162.326 49.4094 161.993 49.4567 161.643 49.6101C161.462 49.69 161.137 49.6101 161.061 49.4779C161.012 49.3931 160.944 49.3442 160.824 49.3474C160.781 49.3474 160.727 49.3327 160.712 49.3034C160.6 49.075 160.475 48.8531 160.404 48.6051C160.374 48.504 160.448 48.3408 160.509 48.2119C160.585 48.0504 160.725 47.915 160.855 47.7763C161.023 47.5953 161.18 47.4027 161.322 47.2053C161.412 47.0797 161.482 46.9378 161.534 46.8007C161.647 46.5054 161.745 46.2102 161.839 45.9149C161.874 45.8088 161.872 45.7011 161.904 45.5951C161.973 45.3537 162.105 45.1367 162.334 44.9572C162.37 44.9295 162.395 44.874 162.41 44.8316C162.492 44.6113 162.621 44.4156 162.822 44.2443C162.898 44.1806 162.937 44.0779 163.006 44.0044C163.092 43.9131 163.188 43.825 163.29 43.7483C163.367 43.6896 163.465 43.657 163.545 43.6015C163.976 43.3127 164.427 43.1316 164.895 43.0044C165.057 42.9603 165.218 42.869 165.378 42.8298C165.494 42.8004 165.644 42.6911 165.724 42.807C165.761 42.8575 165.779 42.9244 165.79 42.9897C165.804 43.0696 165.79 43.161 165.807 43.2393C165.84 43.409 165.823 43.5819 165.71 43.7614C165.655 43.8462 165.555 43.9163 165.505 44.0028C165.421 44.148 165.342 44.3014 165.293 44.4515C165.209 44.7043 165.1 44.9376 164.889 45.1562C164.79 45.259 164.736 45.3993 164.668 45.525C164.544 45.755 164.424 45.985 164.302 46.2151C164.289 46.2395 164.257 46.2607 164.243 46.2852C164.167 46.4125 164.084 46.5381 164.022 46.6686C163.916 46.8888 163.814 47.1107 163.733 47.3326C163.689 47.4533 163.671 47.5855 163.681 47.6997C163.689 47.791 163.735 47.8808 163.865 47.8791C164.216 47.8742 164.564 47.8824 164.918 47.8612C165.052 47.853 165.202 47.778 165.344 47.7421C165.471 47.7095 165.607 47.6589 165.72 47.6703C166.034 47.6997 166.349 47.6409 166.677 47.4941C166.735 47.468 166.806 47.4484 166.86 47.455C167.15 47.4859 167.462 47.2934 167.754 47.3C167.869 47.3016 167.989 47.2967 168.108 47.2706C168.251 47.2396 168.33 47.2885 168.403 47.3685C168.532 47.5104 168.546 47.7013 168.541 47.9036C168.541 47.9085 168.541 47.9134 168.54 47.9166C168.401 48.1516 168.339 48.4077 168.103 48.6149C168.009 48.6981 167.935 48.8237 167.889 48.933C167.791 49.1614 167.666 49.3491 167.406 49.4698C167.297 49.5204 167.203 49.6297 167.106 49.7161C166.944 49.8581 166.786 50.0016 166.628 50.1452C166.521 50.2431 166.415 50.3442 166.306 50.4421C166.194 50.5433 166.079 50.6428 165.968 50.7456C165.785 50.9152 165.604 51.0882 165.424 51.2611C165.403 51.2823 165.387 51.3101 165.377 51.3362C165.261 51.6184 165.505 51.8615 165.804 51.7554C165.967 51.6983 166.127 51.6184 166.288 51.5548C166.343 51.5336 166.404 51.5189 166.458 51.5172C166.717 51.5058 166.974 51.5042 167.234 51.4895C167.317 51.4846 167.409 51.4732 167.488 51.434C167.691 51.3329 167.79 51.4553 167.925 51.4944C168.042 51.5287 168.148 51.5874 168.271 51.6021C168.51 51.6298 168.716 51.6902 168.871 51.8484C168.937 51.9169 169.064 51.9333 169.169 51.9594C169.235 51.9757 169.319 51.9577 169.389 51.9692C169.453 51.9789 169.567 52.0083 169.562 52.0295C169.537 52.1192 169.494 52.2302 169.422 52.2954C169.244 52.457 169.048 52.6022 168.851 52.7425C168.787 52.7881 168.695 52.8126 168.621 52.8224C168.34 52.855 168.068 52.8469 167.778 52.9399C167.661 52.9774 167.543 52.9823 167.426 52.9921C167.229 53.01 167.035 53.01 166.837 53.0394C166.595 53.0753 166.361 53.0394 166.107 53.1552C166.081 53.1683 166.049 53.1699 166.021 53.1715C165.751 53.183 165.484 53.1813 165.21 53.2074C165.073 53.2205 164.927 53.2792 164.785 53.3151C164.724 53.3298 164.661 53.3477 164.604 53.3494C164.312 53.3591 164.022 53.3575 163.728 53.3706C163.638 53.3738 163.537 53.3967 163.445 53.4342C163.161 53.55 162.894 53.5761 162.632 53.5549C162.533 53.5468 162.431 53.5419 162.331 53.5402C162.026 53.537 161.719 53.5272 161.393 53.6659C161.383 53.6691 161.373 53.6707 161.365 53.6724C161.17 53.6838 160.967 53.7148 160.781 53.6985C160.621 53.6854 160.481 53.6185 160.331 53.5778C160.115 53.519 159.898 53.4636 159.683 53.4016C159.604 53.3787 159.5 53.3591 159.466 53.3004C159.387 53.1634 159.235 53.1275 159.103 53.059C159.029 53.0198 158.978 52.9333 158.956 52.8501C158.935 52.7735 159.008 52.7033 159.11 52.6772C159.317 52.6234 159.525 52.5614 159.733 52.5157C159.87 52.4847 160.005 52.4765 160.097 52.4635L160.092 52.4651Z" fill="#CBE0E3"/>
<path d="M182.668 45.0404C182.542 45.3488 182.475 45.6294 182.316 45.8757C182.079 46.2412 182.003 46.6132 181.847 46.9802C181.718 47.2804 181.588 47.5888 181.352 47.8677C181.181 48.0717 181.133 48.305 181.069 48.5301C181.011 48.7308 180.904 48.9151 180.787 49.1044C180.667 49.2969 180.571 49.4992 180.459 49.6949C180.35 49.8858 180.231 50.0751 180.121 50.2676C180.053 50.3851 179.978 50.5025 179.933 50.6216C179.86 50.8206 179.743 50.9985 179.587 51.1616C179.435 51.3199 179.437 51.4961 179.351 51.6608C179.287 51.7865 179.254 51.9414 179.063 52.0083C178.888 52.0687 178.782 52.0018 178.677 51.9366C178.601 51.8892 178.548 51.8158 178.478 51.7636C178.295 51.6298 178.182 51.4651 178.276 51.1845C178.308 51.0915 178.319 50.9854 178.298 50.9071C178.247 50.726 178.385 50.571 178.491 50.4177C178.624 50.2235 178.576 50.0229 178.364 50.0278C178.166 50.0327 177.963 50.0506 177.761 50.0816C177.683 50.093 177.601 50.1648 177.518 50.1942C177.447 50.2203 177.373 50.2301 177.299 50.2431C177.034 50.2904 176.768 50.3312 176.501 50.3851C176.239 50.4389 175.979 50.4829 175.74 50.4422C175.674 50.4307 175.621 50.3622 175.596 50.3002C175.497 50.062 175.397 49.8238 175.544 49.5073C175.593 49.3997 175.708 49.3116 175.825 49.292C175.947 49.2724 176.073 49.23 176.196 49.199C176.284 49.1762 176.381 49.1288 176.458 49.137C176.852 49.1729 177.25 49.0815 177.655 48.8906C177.686 48.876 177.723 48.8629 177.751 48.8645C177.955 48.8727 178.151 48.8221 178.364 48.7063C178.55 48.6051 178.756 48.548 178.956 48.4861C179.122 48.4338 179.246 48.3213 179.328 48.1891C179.453 47.9868 179.552 47.7764 179.661 47.5675C179.971 46.9688 180.078 46.3603 180.284 45.7583C180.36 45.5364 180.378 45.3145 180.444 45.091C180.47 45.0013 180.533 44.8936 180.609 44.8235C180.81 44.6407 181.019 44.4645 181.24 44.3063C181.334 44.2394 181.464 44.2263 181.578 44.1905C181.718 44.1448 181.862 44.1138 181.997 44.0534C182.17 43.9767 182.252 44.0534 182.351 44.1187C182.432 44.1709 182.529 44.2068 182.597 44.272C182.664 44.3389 182.748 44.4205 182.748 44.5151C182.748 44.6962 182.692 44.892 182.666 45.0437L182.668 45.0404Z" fill="#CBE0E3"/>
<path d="M172.478 45.2998C172.595 44.9474 172.865 44.6619 173.157 44.3879C173.198 44.3487 173.242 44.3014 173.264 44.2541C173.348 44.0616 173.457 43.8935 173.643 43.7402C173.867 43.5558 174.085 43.3503 174.259 43.1284C174.388 42.9652 174.531 42.8217 174.681 42.6814C174.767 42.6014 174.869 42.5345 174.962 42.4595C175.07 42.3714 175.173 42.2768 175.283 42.1919C175.369 42.125 175.445 42.1218 175.486 42.1985C175.514 42.2523 175.529 42.3159 175.56 42.3665C175.637 42.4889 175.72 42.608 175.806 42.7254C175.868 42.8086 175.942 42.882 176.005 42.9669C176.125 43.13 176.476 43.1724 176.717 43.0713C176.948 42.9734 177.156 42.9865 177.327 43.0909C177.353 43.1072 177.378 43.1284 177.409 43.1317C177.64 43.1545 177.793 43.2817 177.927 43.4188C178.026 43.5216 178.08 43.6684 178.128 43.8103C178.23 44.1105 178.262 44.4303 178.054 44.7925C178.019 44.8512 177.97 44.9067 177.924 44.9621C177.858 45.0404 177.797 45.1269 177.719 45.1938C177.581 45.3129 177.434 45.4255 177.284 45.5282C177.1 45.6555 176.912 45.7811 176.715 45.8839C176.526 45.985 176.328 46.0585 176.132 46.1433C175.924 46.2347 175.717 46.3325 175.506 46.4141C175.283 46.499 175.059 46.5658 174.835 46.6425C174.767 46.6654 174.7 46.6996 174.632 46.7159C174.48 46.7535 174.33 46.7845 174.179 46.8171C174.166 46.8203 174.149 46.8171 174.138 46.8236C173.846 46.9998 173.602 46.928 173.345 46.9084C173.274 46.9035 173.183 46.9427 173.122 46.9248C172.997 46.8872 172.886 46.8252 172.769 46.7714C172.735 46.7551 172.703 46.7257 172.664 46.7241C172.514 46.7176 172.436 46.6425 172.405 46.5136C172.362 46.3374 172.29 46.171 172.265 45.9867C172.237 45.7681 172.333 45.5348 172.473 45.3031L172.478 45.2998ZM174.322 45.122C174.322 45.122 174.32 45.122 174.319 45.122C174.261 45.2411 174.197 45.3602 174.149 45.4793C174.075 45.6653 174.162 45.7909 174.358 45.7681C174.434 45.7583 174.525 45.7159 174.597 45.6685C175.146 45.3162 175.695 44.9638 176.237 44.6C176.31 44.551 176.373 44.4417 176.396 44.3601C176.422 44.2622 176.325 44.2443 176.241 44.2361C175.977 44.21 175.713 44.1839 175.448 44.1627C175.407 44.1595 175.356 44.1644 175.313 44.1839C174.906 44.3715 174.523 44.5885 174.363 45.0323C174.352 45.0616 174.335 45.0926 174.32 45.122H174.322Z" fill="#CBE0E3"/>
<path d="M171.279 48.0146C171.391 48.0162 171.505 48.0146 171.617 48.0211C171.848 48.0342 172.077 47.9281 172.308 47.8368C172.336 47.8253 172.364 47.8074 172.39 47.8058C172.591 47.7862 172.791 47.7764 172.994 47.7519C173.153 47.7323 173.315 47.6965 173.475 47.6671C173.617 47.641 173.762 47.6067 173.902 47.592C174.144 47.5692 174.383 47.5708 174.627 47.5382C174.785 47.517 174.95 47.4468 175.113 47.4109C175.199 47.3914 175.3 47.3767 175.367 47.4028C175.519 47.4632 175.68 47.4485 175.862 47.4175C176.013 47.3914 176.158 47.4305 176.305 47.4419C176.308 47.4419 176.312 47.4485 176.315 47.4485C176.564 47.4224 176.739 47.5774 177.011 47.5137C177.118 47.4893 177.233 47.5349 177.271 47.6426C177.327 47.8041 177.381 47.9673 177.429 48.1337C177.436 48.1582 177.413 48.2104 177.388 48.2332C177.271 48.3376 177.141 48.3931 177.002 48.3914C176.922 48.3914 176.839 48.3915 176.76 48.3833C176.595 48.367 176.427 48.4143 176.252 48.4714C176.124 48.5138 175.994 48.522 175.863 48.5481C175.827 48.5546 175.786 48.5628 175.755 48.5823C175.535 48.7243 175.321 48.8744 175.102 49.013C174.94 49.1158 174.861 49.261 174.762 49.4029C174.658 49.553 174.53 49.6917 174.414 49.8353C174.24 50.0555 174.022 50.2529 173.925 50.5156C173.889 50.6135 173.8 50.7211 173.711 50.7962C173.493 50.9773 173.412 51.1894 173.351 51.4096C173.313 51.545 173.233 51.6576 173.109 51.7539C173.081 51.7751 173.053 51.8028 173.038 51.8305C172.903 52.0916 172.669 52.2368 172.413 52.3575C172.362 52.382 172.301 52.3918 172.25 52.3918C172.056 52.3918 171.866 52.3689 171.668 52.3852C171.421 52.4048 171.215 52.0965 171.306 51.8599C171.396 51.625 171.434 51.3754 171.645 51.1747C171.864 50.9642 171.983 50.7358 172.049 50.4846C172.061 50.4422 172.108 50.3965 172.143 50.3541C172.453 49.9805 172.761 49.6052 173.074 49.2333C173.191 49.0946 173.17 48.9592 173.008 48.9657C172.862 48.9706 172.707 49 172.555 49.0391C172.31 49.1028 172.071 49.1794 171.825 49.1827C171.568 49.186 171.296 49.2447 171.03 49.2773C170.979 49.2838 170.932 49.2757 170.88 49.2806C170.79 49.292 170.697 49.3116 170.608 49.323C170.557 49.3295 170.506 49.3295 170.46 49.323C170.32 49.3051 170.182 49.2855 170.045 49.261C169.911 49.2382 169.776 49.2186 169.652 49.1794C169.539 49.1435 169.527 48.9771 169.623 48.8744C169.827 48.6574 170.02 48.4257 170.247 48.2348C170.414 48.0962 170.63 48.0081 170.838 48.0032C170.988 47.9999 171.136 48.0081 171.284 48.0113L171.279 48.0146Z" fill="#CBE0E3"/>
<path d="M175.382 54.2956C175.621 54.2401 175.862 54.1798 176.101 54.1308C176.252 54.0998 176.411 54.0639 176.554 54.0639C176.87 54.0672 177.177 54.0705 177.517 53.9122C177.64 53.8551 177.784 53.8568 177.915 53.847C178.209 53.8258 178.496 53.8355 178.791 53.7915C179.051 53.7523 179.262 53.7948 179.448 53.8926C179.569 53.9563 179.653 54.0672 179.76 54.1488C179.816 54.1928 179.903 54.2091 179.946 54.2614C180.032 54.3641 179.872 54.635 179.71 54.6757C179.554 54.7149 179.397 54.7443 179.241 54.7834C179.162 54.803 179.074 54.816 179.007 54.8601C178.824 54.9808 178.647 55.002 178.463 55.0134C178.369 55.02 178.263 55.0771 178.163 55.113C178.049 55.1521 177.937 55.1945 177.823 55.2321C177.759 55.2533 177.693 55.2647 177.63 55.2924C177.403 55.3903 177.182 55.4246 176.954 55.4621C176.798 55.4882 176.633 55.5779 176.472 55.6367C176.435 55.6497 176.392 55.6726 176.361 55.6693C176.172 55.653 175.985 55.7427 175.796 55.8096C175.664 55.8553 175.529 55.87 175.397 55.8944C175.199 55.9303 175.003 55.9629 174.807 55.9907C174.733 56.0005 174.657 56.0054 174.591 55.9907C174.414 55.9548 174.243 55.9107 174.072 55.8651C174.009 55.8471 173.94 55.8259 173.898 55.7851C173.786 55.6742 173.706 55.5339 173.58 55.4376C173.392 55.2941 173.374 55.0461 173.262 54.8568C173.178 54.7133 173.142 54.5207 173.327 54.2989C173.425 54.1798 173.455 54.0232 173.541 53.8943C173.63 53.7621 173.75 53.643 173.856 53.5174C173.869 53.5027 173.889 53.4864 173.892 53.4701C173.991 53.0965 174.368 52.855 174.576 52.532C174.637 52.4374 174.698 52.3444 174.761 52.2514C174.782 52.2188 174.805 52.1829 174.836 52.1617C175.013 52.0344 175.138 51.8778 175.237 51.7C175.301 51.5841 175.59 51.4226 175.715 51.4243C176.122 51.4275 176.415 51.5809 176.595 51.8794C176.623 51.9268 176.625 52.0279 176.587 52.0817C176.458 52.2612 176.303 52.4276 176.165 52.6022C176.101 52.6837 176.031 52.7702 175.997 52.8583C175.941 53.0002 175.844 53.1063 175.717 53.2025C175.677 53.2319 175.621 53.276 175.614 53.3086C175.573 53.5403 175.385 53.7018 175.224 53.8845C175.159 53.9563 175.115 54.0688 175.115 54.1488C175.115 54.201 175.207 54.2336 175.267 54.2646C175.296 54.2793 175.346 54.2679 175.387 54.2695C175.387 54.2793 175.387 54.2875 175.387 54.2972L175.382 54.2956Z" fill="#CBE0E3"/>
</svg>
