<?xml version="1.0" encoding="UTF-8"?>
<svg id="_레이어_1" xmlns="http://www.w3.org/2000/svg" version="1.1" viewBox="0 0 950.2 1009">
  <!-- Generator: Adobe Illustrator 29.6.1, SVG Export Plug-In . SVG Version: 2.1.1 Build 9)  -->
  <defs>
    <style>
      .st0 {
        fill: #cbe0e3;
      }
    </style>
  </defs>
  <path class="st0" d="M479.3,310.1h-98.9v-94.7h-78.2v-55.9h-78.2c11.3,43.7,60.1,68.1,108.2,76.4l-45,65.9c-44.4-8.3-98.9-39.3-115.7-72.5-16.3,37.7-72,78.6-124.5,91.9L0,253c60.1-15,104.5-47.6,115.1-93.6H18.8v-64.8h300.9v48.2h60.7V0h98.9v310.1ZM274,498.3c-127,0-206.5-36-206.5-94.1s79.5-93.6,206.5-93.6,204.6,35.4,204.6,93.6-79.5,94.1-204.6,94.1ZM89.5,72.5V11.6h163.3v60.9H89.5ZM170.8,404.2c0,16.6,37.5,28.8,103.2,28.8s100.1-12.2,100.1-28.8-34.4-28.8-100.1-28.8-103.2,12.7-103.2,28.8Z"/>
  <path class="st0" d="M857.8,301.8v-111.8h-26.3v110.7h-88.8v-76.4l-46.9,60.4c-32.5-11.6-75.7-47.6-88.8-78.6-16.3,39.3-63.2,77.5-107.6,93.6l-50.1-66.4c80.1-31,107.6-91.9,107.6-160V28.2h96.4v42.6c0,62,18.1,112.4,89.5,141.7V9.4h88.8v113h26.3V0h91.3v301.8h-91.3ZM852.2,498.9v-109.6h-311.6v-67h408.6v176.6h-97Z"/>
  <path class="st0" d="M145.6,770.4l35.7-1.7,5.6-129.6,93.2,5.5-12.5,119,45-3.9,5.6,64.8c-83.8,11.6-207.7,16.6-304.1,14.9l-11.3-69.2c20,.6,39.4.6,58.8.6l-10.6-125.7,92.6-6.6,1.9,131.8ZM16.1,622.6v-68.1h297.8v68.1H16.1ZM79.9,1008v-147.8h98.9v80.3h308.5v67.6H79.9ZM330.1,604.9h52.6v-84.2h98.9v362.1h-98.9v-99.1h-52.6v-69.2h52.6v-41h-52.6v-68.7Z"/>
  <path class="st0" d="M642.4,545.6c96.4,0,153.9,77,153.9,181.6s-57.6,182.7-153.9,182.7-153.3-78.1-153.3-182.2,58.8-182.2,153.3-182.2ZM642.4,624.7c-31.3,0-57.6,32.1-57.6,102.4s26.3,103,57.6,103,58.8-31.6,58.8-103-25.7-102.4-58.8-102.4ZM852.6,1009v-498.3h97.6v498.3h-97.6Z"/>
</svg>