<?xml version="1.0" encoding="UTF-8"?>
<svg id="_레이어_1" data-name="레이어_1" xmlns="http://www.w3.org/2000/svg" version="1.1" viewBox="0 0 845 1009">
  <!-- Generator: Adobe Illustrator 29.6.1, SVG Export Plug-In . SVG Version: 2.1.1 Build 9)  -->
  <defs>
    <style>
      .st0 {
        fill: #cbe0e3;
      }
    </style>
  </defs>
  <path class="st0" d="M845,1008.4h-87.4v-497.4h87.4v497.4ZM572.2,543.9c25.4,0,48.2,7.3,68.3,22,20.4,14.5,36.2,35.3,47.4,62.4,11.4,27,17.2,58.4,17.2,94.3s-5.7,68-17.2,95.1c-11.3,27-27.1,47.9-47.4,62.7-20.2,14.7-43,22-68.3,22s-48.5-7.3-68.9-22c-20.2-14.8-36.1-35.7-47.7-62.7-11.4-27.2-17.2-58.9-17.2-95.1s5.7-67.4,17.2-94.3c11.6-27.2,27.5-48,47.7-62.4,20.4-14.7,43.3-22,68.9-22ZM572.2,621.9c-10.2-.4-19.1,3.1-26.8,10.5-7.7,7.3-13.6,18.7-17.7,34-3.9,15.2-5.9,33.9-5.9,56.3s2,41.6,5.9,56.8c4.1,15,10,26.2,17.7,33.5,7.7,7.3,16.6,11,26.8,11s19.2-3.7,26.5-11c7.5-7.3,13.3-18.5,17.4-33.5,4.1-15.2,6.2-34.1,6.2-56.8s-2.1-41.1-6.2-56.3c-4.1-15.4-9.9-26.7-17.4-34-7.3-7.3-16.2-10.8-26.5-10.5Z"/>
  <path class="st0" d="M428.3,873.8h-85.5v-362.9h85.5v362.9ZM281.9,611.7H17.4v-68.1h264.5v68.1ZM5.4,754.6c55.2,0,105.5-.6,150.9-1.9,45.4-1.4,87.9-4.3,127.6-8.6l3.2,62.2c-40.4,6.8-84,11.4-130.8,13.9-46.6,2.3-94,3.5-142,3.5l-8.8-69.1ZM134,762.6H50.9v-158.7h83.1v158.7ZM247.4,762.6h-81.7v-158.7h81.7v158.7ZM389.2,662.1h-94.9v-68.1h94.9v68.1ZM389.2,765.6h-94.9v-70h94.9v70ZM439,1000.1H92.2v-68.6h346.8v68.6ZM179,986.1h-86.8v-137.8h86.8v137.8Z"/>
  <path class="st0" d="M563.2,81.2c0,32-3.8,61.9-11.3,89.8-7.3,27.9-19.6,52.4-36.7,73.7-17.2,21.3-39.5,37.4-67,48.5l-45.3-65.7c23-10,41.5-22.7,55.2-38.1,13.9-15.4,23.8-32.2,29.5-50.4,5.9-18.2,8.8-37.5,8.8-57.9V30h66.7v51.2ZM580.3,81.2c0,19.3,2.7,37.3,8,54.1,5.5,16.8,14.7,32,27.6,45.6,13,13.6,30.3,24.8,51.7,33.8l-45.8,65.1c-25.6-10.4-46.5-25.4-62.7-45-16.3-19.7-28.1-42.4-35.4-68.3-7.1-26.1-10.7-54.5-10.7-85.2V30h67.3v51.2ZM843.8,303.1h-81.5V2.7h81.5v300.4ZM784.3,187.1h-70.5v-69.7h70.5v69.7ZM736.3,301h-79.1V9.6h79.1v291.3ZM843.8,497.4h-85.8v-107.7h-262.1v-68.3h347.9v176.1Z"/>
  <path class="st0" d="M180.1,106.7c0,30.2-4.7,58.2-14.2,84.2-9.5,25.9-24.7,48.5-45.8,67.8-20.9,19.1-47.8,33-80.7,41.5L0,233.2c26.8-7.1,48.5-17.3,65.1-30.6,16.6-13.4,28.5-28.3,35.6-44.8,7.3-16.4,11-33.5,11-51.2v-16.9h68.3v16.9ZM197.5,106.7c0,15.9,3.6,31.4,10.7,46.4,7.3,15,19.3,28.6,35.9,40.7,16.8,12,38.7,21.2,65.7,27.6l-40.2,65.9c-32.9-7.9-59.9-20.6-80.9-38.3-20.9-17.9-36.3-39-46.1-63.3-9.8-24.3-14.7-50.7-14.7-79.1v-16.9h69.7v16.9ZM289.7,115.5H19.8V48.5h269.9v67ZM198.1,75.8h-86.3V0h86.3v75.8ZM361.8,197.5h-86v-68.3h86v68.3ZM428.3,301.2h-85.5V1.6h85.5v299.6ZM256,306.3c35.9,0,66.8,3.7,92.7,11,26.1,7.3,46.1,18.1,60,32.4,14.1,14.1,21.2,31.2,21.2,51.2s-7.1,37.6-21.2,52.3c-13.9,14.8-34,26-60.3,33.5-26.1,7.7-56.9,11.5-92.5,11.5s-65.8-3.8-91.9-11.5c-25.9-7.5-45.9-18.7-60-33.5-13.9-14.7-20.9-32.1-20.9-52.3s7-37.1,20.9-51.2c14.1-14.3,34-25.1,59.8-32.4,25.9-7.3,56.6-11,92.2-11ZM256,371.5c-19.8-.4-36.2.5-49,2.7-12.9,2.1-22.5,5.4-28.9,9.6-6.4,4.3-9.6,10-9.6,17.2s3.2,13.4,9.6,18.2c6.4,4.8,16.1,8.5,28.9,11,12.9,2.3,29.2,3.5,49,3.5s37.3-1.2,50.1-3.5c12.9-2.5,22.4-6.2,28.7-11,6.3-4.8,9.4-10.9,9.4-18.2s-3.1-12.9-9.4-17.2c-6.3-4.3-15.9-7.5-28.9-9.6-13-2.1-29.7-3-49.9-2.7Z"/>
</svg>