<?xml version="1.0" encoding="UTF-8"?>
<svg id="_레이어_2" xmlns="http://www.w3.org/2000/svg" version="1.1" viewBox="0 0 1256.5 343.9">
  <!-- Generator: Adobe Illustrator 29.7.1, SVG Export Plug-In . SVG Version: 2.1.1 Build 8)  -->
  <defs>
    <style>
      .st0 {
        isolation: isolate;
      }

      .st1 {
        fill: #fff;
      }
    </style>
  </defs>
  <g id="_레이어_1-2">
    <g class="st0">
      <g class="st0">
        <path class="st1" d="M196.5,206.5c-31.5-6.6-70.7-31.3-82.9-55.2-10.9,26.2-50.1,56.4-87.5,66.4-8.9-13.1-17.3-26.2-26-39,42.9-10,78.2-39.4,82.5-74.5H13v-38.2h196.5v38.2h-67.7c5,34,44.2,56,78.2,63.3l-23.5,39h0ZM179.6,343.5c-85.4,0-133.8-25.1-133.8-65.6s48.4-65.6,133.8-65.6,134.2,25.1,134.2,65.6-47.9,65.6-134.2,65.6h0ZM58.5,13.9h109.4v36.7H58.5V13.9ZM179.6,250.9c-48.4,0-75.7,11.6-75.7,27s27.4,26.2,75.7,26.2,76.1-10.8,76.1-26.2-27.4-27-76.1-27h0ZM311.8,215.4h-56.3v-63.3h-51.7v-41.3h51.7V0h56.3v215.4Z"/>
      </g>
      <g class="st0">
        <path class="st1" d="M466.7,187.6c-24-9.3-54.3-36.3-64-59.1-11.4,27.8-39.9,59.8-71.5,72.2l-30.3-39.8c48.8-19.7,73.2-62.5,73.2-110.8v-24.7h53.8v23.9c0,46.7,24.8,81.4,68.6,98.8l-29.9,39.4h0ZM629.5,219.2v125.1h-55.6v-84.5h-207.9v-40.5h263.5ZM577.3,203.4v-80.7h-23.5v78.7h-51.3V6.2h51.3v76.4h23.5V0h52.2v203.4h-52.2Z"/>
        <path class="st1" d="M632.5,217.3l-6.3-41.7c10.5.4,22.8.4,36.2.4h8.4c-3.8-29.7-7.1-59.4-10.5-89.6,17.7-1.5,36.2-3.9,53.4-5.8,1.3,31.7,3.4,62.9,4.6,94.6,9.6,0,19.4-.4,29-.8l7.1-92.6c17.7,1.5,34.9,3.5,53.1,4.6-4.2,28.9-7.6,57.1-11.4,85.7,14.3-.8,27.8-1.5,39.6-2.7.9,13.1,2.5,25.5,3.8,38.2-43.8,6.6-138.4,9.7-207,9.7h0ZM635.9,68.7V28.2h192.3v40.5h-192.3ZM683,335.4v-100.7h56v61h207v39.8h-263ZM841.2,66h41.2V0h56.3v246.7h-56.3v-76h-41.2v-38.6h41.2v-28.2h-41.2v-37.8h0Z"/>
      </g>
      <g class="st0">
        <path class="st1" d="M1053.3,22c62.3,0,98.9,52.1,98.9,124.3s-36.6,123.1-98.9,123.1-98-52.1-98-123.1,36.6-124.3,98-124.3h0ZM1053.3,67.2c-25.3,0-45.1,26.6-45.1,79.1s19.8,78.7,45.1,78.7,46.7-27,46.7-78.7-19.8-79.1-46.7-79.1ZM1201,343.9V0h55.6v343.9h-55.6Z"/>
      </g>
    </g>
  </g>
</svg>