<svg width="36" height="254" viewBox="0 0 36 254" fill="none" xmlns="http://www.w3.org/2000/svg">
<g style="mix-blend-mode:plus-lighter" filter="url(#filter0_df_1_51)">
<path d="M14 236C13.9806 237.061 14.3851 238.078 15.1355 238.828C15.8854 239.579 16.9198 240 18 240C19.0802 240 20.1146 239.579 20.8645 238.828C21.6149 238.078 22.0194 237.061 22 236C21.9333 232.3 21.8667 228.6 21.8 224.9C20.6 158.3 19.4 91.7 18.2 25.1C18.1333 21.4 18.0667 17.7 18 14C17.9333 17.7 17.8667 21.4 17.8 25.1C16.6 91.7 15.4 158.3 14.2 224.9C14.1333 228.6 14.0667 232.3 14 236Z" fill="url(#paint0_linear_1_51)"/>
</g>
<defs>
<filter id="filter0_df_1_51" x="-0.000671387" y="0" width="36.0013" height="254" filterUnits="userSpaceOnUse" color-interpolation-filters="sRGB">
<feFlood flood-opacity="0" result="BackgroundImageFix"/>
<feColorMatrix in="SourceAlpha" type="matrix" values="0 0 0 0 0 0 0 0 0 0 0 0 0 0 0 0 0 0 127 0" result="hardAlpha"/>
<feOffset/>
<feGaussianBlur stdDeviation="7"/>
<feComposite in2="hardAlpha" operator="out"/>
<feColorMatrix type="matrix" values="0 0 0 0 1 0 0 0 0 1 0 0 0 0 1 0 0 0 1 0"/>
<feBlend mode="normal" in2="BackgroundImageFix" result="effect1_dropShadow_1_51"/>
<feBlend mode="normal" in="SourceGraphic" in2="effect1_dropShadow_1_51" result="shape"/>
<feGaussianBlur stdDeviation="2" result="effect2_foregroundBlur_1_51"/>
</filter>
<linearGradient id="paint0_linear_1_51" x1="18" y1="11.5" x2="18" y2="236.5" gradientUnits="userSpaceOnUse">
<stop stop-color="white" stop-opacity="0"/>
<stop offset="1" stop-color="white"/>
</linearGradient>
</defs>
</svg>
