<svg width="845" height="1009" viewBox="0 0 845 1009" fill="none" xmlns="http://www.w3.org/2000/svg">
<path d="M845 1008.38H757.628V510.953H845V1008.38ZM572.164 543.918C597.536 543.918 620.317 551.244 640.507 565.895C660.876 580.368 676.689 601.183 687.945 628.342C699.38 655.322 705.098 686.768 705.098 722.682C705.098 758.953 699.38 790.668 687.945 817.826C676.689 844.806 660.876 865.711 640.507 880.541C620.317 895.192 597.536 902.518 572.164 902.518C546.613 902.518 523.654 895.192 503.285 880.541C483.095 865.711 467.193 844.806 455.579 817.826C444.144 790.668 438.426 758.953 438.426 722.682C438.426 686.768 444.144 655.322 455.579 628.342C467.193 601.183 483.095 580.368 503.285 565.895C523.654 551.244 546.613 543.918 572.164 543.918ZM572.164 621.909C561.979 621.552 553.046 625.036 545.363 632.362C537.68 639.688 531.783 651.033 527.674 666.399C523.743 681.587 521.778 700.348 521.778 722.682C521.778 745.374 523.743 764.313 527.674 779.5C531.783 794.509 537.68 805.676 545.363 813.002C553.046 820.328 561.979 823.99 572.164 823.99C582.527 823.99 591.371 820.328 598.697 813.002C606.201 805.676 612.008 794.509 616.118 779.5C620.227 764.313 622.282 745.374 622.282 722.682C622.282 700.348 620.227 681.587 616.118 666.399C612.008 651.033 606.201 639.688 598.697 632.362C591.371 625.036 582.527 621.552 572.164 621.909Z" fill="black"/>
<path d="M428.283 873.841H342.787V510.953H428.283V873.841ZM281.948 611.725H17.4207V543.65H281.948V611.725ZM5.36017 754.575C60.5706 754.575 110.868 753.95 156.251 752.699C201.634 751.27 244.159 748.411 283.824 744.123L287.041 806.302C246.66 813.091 203.064 817.737 156.251 820.238C109.617 822.561 62.268 823.722 14.2046 823.722L5.36017 754.575ZM134.006 762.616H50.9222V603.953H134.006V762.616ZM247.375 762.616H165.631V603.953H247.375V762.616ZM389.153 662.111H294.277V594.036H389.153V662.111ZM389.153 765.564H294.277V695.613H389.153V765.564ZM439.003 1000.07H92.196V931.463H439.003V1000.07ZM179.032 986.138H92.196V848.379H179.032V986.138Z" fill="black"/>
<path d="M563.157 81.2074C563.157 113.19 559.405 143.118 551.901 170.991C544.575 198.865 532.336 223.432 515.183 244.695C498.03 265.957 475.696 282.127 448.18 293.205L402.886 227.542C425.935 217.536 444.339 204.85 458.097 189.484C472.033 174.118 481.86 157.323 487.578 139.098C493.474 120.873 496.422 101.576 496.422 81.2074V30.0171H563.157V81.2074ZM580.31 81.2074C580.31 100.504 582.99 118.55 588.35 135.346C593.889 152.141 603.091 167.329 615.956 180.908C628.999 194.487 646.241 205.744 667.682 214.677L621.852 279.804C596.301 269.441 575.396 254.432 559.137 234.778C542.878 215.124 531.085 192.343 523.759 166.435C516.612 140.349 513.039 111.939 513.039 81.2074V30.0171H580.31V81.2074ZM843.766 303.121H762.29V2.67993H843.766V303.121ZM784.267 187.072H713.78V117.389H784.267V187.072ZM736.293 300.977H657.229V9.64824H736.293V300.977ZM843.766 497.43H758.002V389.689H495.886V321.346H843.766V497.43Z" fill="black"/>
<path d="M180.104 106.669C180.104 136.865 175.369 164.917 165.899 190.824C156.43 216.732 141.153 239.335 120.069 258.631C99.1644 277.75 72.2739 291.597 39.3977 300.173L0 233.17C26.8012 226.023 48.5102 215.839 65.1269 202.617C81.7436 189.216 93.6255 174.297 100.772 157.859C108.098 141.421 111.761 124.357 111.761 106.669V89.784H180.104V106.669ZM197.525 106.669C197.525 122.571 201.098 138.026 208.245 153.035C215.571 168.043 227.542 181.623 244.159 193.773C260.954 205.744 282.842 214.946 309.822 221.378L269.62 287.309C236.744 279.447 209.764 266.672 188.68 248.983C167.775 231.116 152.409 210.032 142.582 185.732C132.755 161.432 127.842 135.078 127.842 106.669V89.784H197.525V106.669ZM289.721 115.513H19.8329V48.5101H289.721V115.513ZM198.061 75.8474H111.761V0H198.061V75.8474ZM361.816 197.525H275.784V129.182H361.816V197.525ZM428.283 301.245H342.787V1.60807H428.283V301.245ZM255.951 306.338C291.865 306.338 322.776 310 348.683 317.326C374.77 324.652 394.782 335.461 408.718 349.755C422.833 363.871 429.891 380.934 429.891 400.946C429.891 421.136 422.833 438.557 408.718 453.208C394.782 468.038 374.681 479.205 348.415 486.71C322.329 494.393 291.508 498.234 255.951 498.234C220.752 498.234 190.11 494.393 164.023 486.71C138.115 479.205 118.104 468.038 103.989 453.208C90.052 438.557 83.0837 421.136 83.0837 400.946C83.0837 380.934 90.052 363.871 103.989 349.755C118.104 335.461 138.026 324.652 163.755 317.326C189.663 310 220.395 306.338 255.951 306.338ZM255.951 371.464C236.118 371.107 219.77 372 206.905 374.145C194.041 376.289 184.392 379.505 177.96 383.793C171.528 388.081 168.311 393.799 168.311 400.946C168.311 408.271 171.528 414.346 177.96 419.171C184.392 423.995 194.041 427.658 206.905 430.159C219.77 432.482 236.118 433.643 255.951 433.643C276.499 433.643 293.205 432.482 306.07 430.159C318.934 427.658 328.493 423.995 334.747 419.171C341 414.346 344.127 408.271 344.127 400.946C344.127 393.799 341 388.081 334.747 383.793C328.493 379.505 318.845 376.289 305.802 374.145C292.758 372 276.142 371.107 255.951 371.464Z" fill="black"/>
</svg>
