<?xml version="1.0" encoding="UTF-8"?>
<svg id="_레이어_2" data-name="레이어 2" xmlns="http://www.w3.org/2000/svg" viewBox="0 0 662.4 703.4">
  <g id="_레이어_1-2" data-name="레이어 1">
    <g>
      <path d="M334.11,216.16h-68.92v-66.01h-54.52v-38.99h-54.52c7.85,30.49,41.87,47.48,75.46,53.27l-31.4,45.93c-30.97-5.79-68.92-27.41-80.69-50.57-11.34,26.25-50.16,54.81-86.8,64.08L0,176.4c41.87-10.42,72.84-33.2,80.26-65.23H13.09v-45.16h209.8v33.58h42.31V0h68.92v216.16ZM191.04,347.4c-88.54,0-143.94-25.09-143.94-65.62s55.39-65.23,143.94-65.23,142.63,24.7,142.63,65.23-55.39,65.62-142.63,65.62ZM62.37,50.57V8.11h113.84v42.46H62.37ZM119.08,281.78c0,11.58,26.17,20.07,71.97,20.07s69.79-8.49,69.79-20.07-23.99-20.07-69.79-20.07-71.97,8.88-71.97,20.07Z"/>
      <path d="M597.99,210.37v-77.97h-18.32v77.2h-61.94v-53.27l-32.71,42.07c-22.68-8.11-52.78-33.2-61.94-54.81-11.34,27.41-44.05,54.04-75.02,65.23l-34.89-46.32c55.83-21.62,75.02-64.08,75.02-111.55v-31.27h67.17v29.72c0,43.23,12.65,78.36,62.37,98.82V6.56h61.94v78.74h18.32V0h63.68v210.37h-63.68ZM594.07,347.79v-76.43h-217.21v-46.71h284.82v123.13h-67.61Z"/>
      <path d="M101.48,537.09l24.86-1.16,3.93-90.32,64.99,3.86-8.72,82.99,31.4-2.7,3.93,45.16c-58.45,8.11-144.81,11.58-211.98,10.42l-7.85-48.25c13.96.39,27.48.39,41,.39l-7.41-87.62,64.55-4.63,1.31,91.87ZM11.19,434.02v-47.48h207.62v47.48H11.19ZM55.68,702.68v-103.06h68.92v55.97h215.03v47.09H55.68ZM230.15,421.67h36.64v-58.67h68.92v252.45h-68.92v-69.09h-36.64v-48.25h36.64v-28.56h-36.64v-47.86Z"/>
      <path d="M447.8,380.32c67.17,0,107.3,53.65,107.3,126.61s-40.13,127.38-107.3,127.38-106.86-54.43-106.86-126.99,41-126.99,106.86-126.99ZM447.8,435.52c-21.81,0-40.13,22.39-40.13,71.41s18.32,71.8,40.13,71.8c23.12,0,41-22,41-71.8s-17.88-71.41-41-71.41ZM594.35,703.4v-347.4h68.04v347.4h-68.04Z"/>
    </g>
  </g>
</svg>